<svg xmlns="http://www.w3.org/2000/svg" width="808" height="215" viewBox="0 0 808 215">
    <path fill="#E64129" fill-rule="evenodd" d="M624.01 132.437c-15.126 0-23.04-13.235-23.04-26.293 0-12.707 7.562-25.234 23.04-25.234 12.663 0 22.864 10.235 22.864 24.705 0 16.939-10.2 26.822-22.864 26.822zm23.216-68.47c-7.035-8.115-16.883-11.644-27.084-11.644-33.067 0-50.303 26.115-50.303 53.292 0 25.409 15.477 53.643 47.488 53.643 10.904 0 21.81-3.88 29.9-13.057v11.292h29.547V54.087h-29.548v9.88zm-494.99 68.47c-15.126 0-23.04-13.235-23.04-26.293 0-12.707 7.562-25.234 23.04-25.234 12.663 0 22.864 10.235 22.864 24.705 0 16.939-10.2 26.822-22.864 26.822zM205 157.493h-29.548v-11.292c-8.089 9.177-18.995 13.057-29.9 13.057-32.01 0-47.487-28.234-47.487-53.643 0-27.177 17.236-53.292 50.301-53.292 10.377 0 20.05 3.529 27.086 11.644v-9.88H205v103.406zM239.597 2c8.682 0 15.726 7.044 15.726 15.727 0 8.68-7.044 15.725-15.726 15.725-8.682 0-15.726-7.045-15.726-15.725C223.871 9.044 230.915 2 239.597 2zM59.757 116.39c0 16.076 14.616 17.147 26.795 12.146l3.83 22.148c-9.746 5.359-19.49 7.86-28.188 7.86-19.14 0-33.754-12.86-33.754-36.795V74.952H9.999V50.303h18.44v-34.65h31.319v34.65h24.706v24.649H59.758v41.439zm163.762 51.491V53.207h31.452V167.88c0 28.976-14.676 41.7-33.896 41.7-8.737 0-18.524-2.475-28.309-7.776l3.846-21.908c12.231 4.947 26.907 3.887 26.907-12.016zm104.846-35.444c-15.128 0-23.042-13.235-23.042-26.293 0-12.707 7.564-25.234 23.042-25.234 12.663 0 22.864 10.235 22.864 24.705 0 16.939-10.2 26.822-22.864 26.822zm23.216-68.47v-9.88h29.548v103.406h-29.548v-11.292c-8.09 9.177-18.997 13.057-29.9 13.057-32.01 0-47.487-28.234-47.487-53.643 0-27.177 17.236-53.292 50.301-53.292 10.377 0 20.05 3.529 27.086 11.644zm344.064 89V2h31.452v150.968h-31.452zm78.63-69.193c-8.683 0-15.727-7.044-15.727-15.727 0-8.68 7.044-15.724 15.726-15.724 8.682 0 15.726 7.043 15.726 15.724 0 8.683-7.044 15.727-15.726 15.727zm0 37.742c8.681 0 15.725 7.044 15.725 15.727 0 8.68-7.044 15.725-15.726 15.725-8.682 0-15.726-7.044-15.726-15.725 0-8.683 7.044-15.727 15.726-15.727zm-267.088-14.234l23.954-54.96h32.407l-43.327 100.646h-20.08l-24.657-54.96-24.306 54.96H431.1L387.42 52.323h32.76l23.602 55.303 24.305-55.303h14.795l24.306 54.96z"/>
</svg>
